<?xml version="1.0" encoding="UTF-8"?>
<svg version="1.1" xmlns="http://www.w3.org/2000/svg" width="128" height="128">
<path d="M0 0 C0.87315353 -0.00807175 1.74630707 -0.01614349 2.6459198 -0.02445984 C4.49610405 -0.03830239 6.34631387 -0.04902378 8.1965332 -0.05688477 C11.02149072 -0.07408795 13.84527496 -0.11797041 16.66992188 -0.16210938 C18.46743931 -0.17223722 20.2649667 -0.18075304 22.0625 -0.1875 C22.90537064 -0.20500809 23.74824127 -0.22251617 24.61665344 -0.24055481 C28.6659819 -0.22563462 30.71413128 -0.08595221 34.22143555 2.11645508 C38.13799117 6.25289753 38.31409151 9.7191788 38.23046875 15.23828125 C38.90102295 15.21733398 39.57157715 15.19638672 40.26245117 15.17480469 C43.31413655 15.09142098 46.36558192 15.03955109 49.41796875 14.98828125 C51.00061523 14.93800781 51.00061523 14.93800781 52.61523438 14.88671875 C60.47271176 14.78757077 60.47271176 14.78757077 64.3828125 17.11328125 C67.51054881 20.71050864 68.46083099 23.51698701 68.16796875 28.23828125 C67.507645 32.49012197 65.63309712 34.58257131 62.23046875 37.23828125 C61.57046875 37.23828125 60.91046875 37.23828125 60.23046875 37.23828125 C60.16351807 38.64678345 60.16351807 38.64678345 60.09521484 40.08374023 C59.38881195 54.12933731 58.30574746 68.14639464 57.18359375 82.16381836 C56.96212602 84.93745758 56.74731642 87.71149523 56.53808594 90.48608398 C56.23224802 94.54128027 55.90782415 98.59479482 55.58203125 102.6484375 C55.44590927 104.49551048 55.44590927 104.49551048 55.30703735 106.37989807 C53.97350147 122.41949869 53.97350147 122.41949869 49.56288147 126.95191956 C46.36144195 128.71756297 43.89541113 128.63372538 40.24633789 128.65820312 C39.55152817 128.66667267 38.85671844 128.67514221 38.14085388 128.68386841 C35.84892364 128.70722675 33.55766516 128.70826092 31.265625 128.70703125 C29.66905957 128.71413351 28.0724967 128.72183261 26.47593689 128.73010254 C23.13110253 128.74354458 19.78650419 128.74511741 16.44165039 128.73925781 C12.15957586 128.73336146 7.87863506 128.76395048 3.59677982 128.80437469 C0.29985983 128.83025024 -2.9967871 128.83312931 -6.29379463 128.82948303 C-7.87223727 128.8311744 -9.45069249 128.84081872 -11.02903557 128.85862732 C-13.23879294 128.88081698 -15.44625496 128.87111913 -17.65600586 128.85351562 C-18.91191025 128.85557007 -20.16781464 128.85762451 -21.46177673 128.85974121 C-25.76914044 128.05047496 -27.15278804 126.71748119 -29.76953125 123.23828125 C-31.56306765 118.48446787 -32.13939745 113.88267912 -32.54736328 108.83764648 C-32.60617676 108.1342514 -32.66499023 107.43085632 -32.72558594 106.70614624 C-32.9163493 104.40355736 -33.0970173 102.10030277 -33.27734375 99.796875 C-33.40845755 98.18453064 -33.54012964 96.5722316 -33.67233276 94.9599762 C-33.94717165 91.59059273 -34.21738306 88.22088291 -34.48388672 84.85083008 C-34.82479378 80.54081989 -35.17399078 76.2315346 -35.52624702 71.92243862 C-35.79776663 68.59655302 -36.06653647 65.27045018 -36.33431625 61.94426155 C-36.46223889 60.35547238 -36.59062329 58.76672031 -36.71948624 57.17800713 C-36.89902049 54.95537175 -37.07525617 52.73249967 -37.25048828 50.50952148 C-37.35104523 49.24712143 -37.45160217 47.98472137 -37.5552063 46.68406677 C-37.75178351 43.52361852 -37.80987018 40.40363463 -37.76953125 37.23828125 C-38.53265625 37.03203125 -39.29578125 36.82578125 -40.08203125 36.61328125 C-43.75560834 34.73377669 -44.47321841 33.12721976 -45.76953125 29.23828125 C-45.98355268 24.86368323 -45.25121691 21.96857887 -42.83203125 18.30078125 C-40.54011251 16.00886251 -39.65082792 15.28106711 -36.43115234 15.12475586 C-35.00150146 15.13261108 -35.00150146 15.13261108 -33.54296875 15.140625 C-32.51171875 15.14384766 -31.48046875 15.14707031 -30.41796875 15.15039062 C-28.79761719 15.16295898 -28.79761719 15.16295898 -27.14453125 15.17578125 C-25.51257812 15.18254883 -25.51257812 15.18254883 -23.84765625 15.18945312 C-21.15489336 15.20126349 -18.46223937 15.21773347 -15.76953125 15.23828125 C-15.69496704 14.31595703 -15.69496704 14.31595703 -15.61889648 13.375 C-15.5059021 12.16263672 -15.5059021 12.16263672 -15.390625 10.92578125 C-15.32029053 10.12527344 -15.24995605 9.32476562 -15.17749023 8.5 C-14.59405803 5.26546021 -13.09391242 3.49222663 -10.76953125 1.23828125 C-7.42936142 -0.43180366 -3.67469975 0.03197476 0 0 Z M-6.76953125 10.23828125 C-6.76953125 11.88828125 -6.76953125 13.53828125 -6.76953125 15.23828125 C5.11046875 15.23828125 16.99046875 15.23828125 29.23046875 15.23828125 C29.23046875 13.58828125 29.23046875 11.93828125 29.23046875 10.23828125 C26.32605216 7.33386466 24.1628903 7.97960389 20.10546875 7.97265625 C19.05141846 7.96978607 19.05141846 7.96978607 17.97607422 7.96685791 C16.48990521 7.9654965 15.0037243 7.96918993 13.51757812 7.97753906 C11.23931229 7.98823971 8.96183498 7.97764286 6.68359375 7.96484375 C5.24088367 7.96616535 3.79817409 7.96872776 2.35546875 7.97265625 C1.03804687 7.97491211 -0.279375 7.97716797 -1.63671875 7.97949219 C-4.86887255 7.90662686 -4.86887255 7.90662686 -6.76953125 10.23828125 Z M-36.76953125 25.23828125 C-36.60286458 27.32161458 -36.60286458 27.32161458 -35.76953125 29.23828125 C-32.50843773 30.86882801 -28.91207601 30.38550245 -25.32836914 30.38354492 C-24.45507462 30.38690353 -23.58178009 30.39026215 -22.68202209 30.39372253 C-19.78539623 30.40324798 -16.88882807 30.40517641 -13.9921875 30.40625 C-11.98441036 30.40946135 -9.97663345 30.41282533 -7.96885681 30.41633606 C-3.75633196 30.42233124 0.45617236 30.42417555 4.66870117 30.42358398 C10.07387836 30.42348231 15.47892433 30.437138 20.8840704 30.45435619 C25.03183093 30.46545927 29.17955957 30.46750372 33.32733345 30.46697426 C35.32048559 30.4681568 37.31363848 30.47259384 39.30677605 30.48030663 C42.091249 30.49007287 44.87543481 30.48724188 47.65991211 30.48120117 C48.48755066 30.48682068 49.31518921 30.49244019 50.16790771 30.49822998 C54.0469617 30.47677911 55.9271292 30.44050762 59.23046875 28.23828125 C58.73290783 25.48186709 58.73290783 25.48186709 57.23046875 23.23828125 C54.38029577 23.13240336 51.55422507 23.0915039 48.70336914 23.09301758 C47.80910721 23.08965897 46.91484528 23.08630035 45.9934845 23.08283997 C43.02168407 23.07329968 40.0499398 23.07138533 37.078125 23.0703125 C35.0216825 23.06710209 32.96524023 23.06373819 30.90879822 23.06022644 C26.59194407 23.05422748 22.27510997 23.05238733 17.95825195 23.05297852 C12.41506545 23.05308019 6.8720069 23.03942592 1.32885075 23.02220631 C-2.92009578 23.01111115 -7.16901113 23.00905854 -11.41797066 23.00958824 C-13.46218876 23.00840444 -15.50640757 23.00396047 -17.5506115 22.99625587 C-20.40484564 22.98650581 -23.25879886 22.98931418 -26.11303711 22.99536133 C-26.96454346 22.98974182 -27.8160498 22.98412231 -28.69335938 22.97833252 C-33.20589972 22.80447989 -33.20589972 22.80447989 -36.76953125 25.23828125 Z M-28.76953125 38.23828125 C-28.76953125 44.23473074 -28.74003928 49.85099761 -28.25048828 55.76757812 C-28.19517944 56.44857574 -28.13987061 57.12957336 -28.08288574 57.83120728 C-27.90213708 60.04020852 -27.71519425 62.24862339 -27.52734375 64.45703125 C-27.39750855 66.00735612 -27.26778016 67.55768994 -27.13815308 69.10803223 C-26.86711391 72.33563323 -26.59257043 75.56291462 -26.31591797 78.79003906 C-25.96163659 82.92980674 -25.61969458 87.07049633 -25.28070259 91.21154022 C-25.01748426 94.40329019 -24.74609876 97.59430666 -24.47237778 100.78517151 C-24.34266309 102.31278413 -24.21591148 103.84065134 -24.0921669 105.36875916 C-23.91912845 107.4947215 -23.73472064 109.61939913 -23.54736328 111.74414062 C-23.44521515 112.95307983 -23.34306702 114.16201904 -23.23782349 115.40759277 C-23.03072473 118.36523036 -23.03072473 118.36523036 -20.76953125 120.23828125 C-17.99125297 120.54575948 -17.99125297 120.54575948 -14.69921875 120.49707031 C-12.78713623 120.50652679 -12.78713623 120.50652679 -10.83642578 120.51617432 C-9.43912621 120.51259464 -8.04182788 120.50849271 -6.64453125 120.50390625 C-5.21728448 120.50525296 -3.79003816 120.50719354 -2.36279297 120.50970459 C0.6299272 120.51265559 3.62252806 120.50835907 6.61523438 120.49902344 C10.45563248 120.4876288 14.29575107 120.49418842 18.13613892 120.50616837 C21.08376175 120.51338768 24.03131806 120.51109873 26.97894287 120.50591278 C28.39516228 120.50457648 29.81138769 120.50622334 31.2276001 120.51087189 C33.20511768 120.515938 35.18265637 120.50685033 37.16015625 120.49707031 C38.28663574 120.49547913 39.41311523 120.49388794 40.57373047 120.49224854 C43.38520711 120.5079494 43.38520711 120.5079494 45.23046875 118.23828125 C45.75851048 115.27955441 45.75851048 115.27955441 46.00830078 111.74414062 C46.06711426 111.07716156 46.12592773 110.4101825 46.18652344 109.72299194 C46.37931226 107.50999973 46.55898387 105.29615426 46.73828125 103.08203125 C46.86927363 101.53937162 47.00094651 99.99676963 47.13327026 98.45422363 C47.40939134 95.21308836 47.67942679 91.97152287 47.94482422 88.72949219 C48.28322568 84.59771947 48.63309208 80.46702519 48.98718452 76.33657074 C49.26003936 73.14531019 49.52838407 69.95368328 49.79525375 66.76191711 C49.92266098 65.24058408 50.05103111 63.71933135 50.18042374 62.19816589 C50.36169513 60.05496515 50.53731256 57.91137089 50.71142578 55.76757812 C50.81198273 54.55227417 50.91253967 53.33697021 51.0161438 52.08483887 C51.27294673 47.4759156 51.23046875 42.85435333 51.23046875 38.23828125 C24.83046875 38.23828125 -1.56953125 38.23828125 -28.76953125 38.23828125 Z " fill="#FFFFFF" transform="translate(52.76953125,-0.23828125)"/>
<path d="M0 0 C2.5 0.25 2.5 0.25 4.5 2.25 C4.55869095 4.82782853 4.49393146 7.27797509 4.328125 9.84375 C4.28632614 10.6149115 4.24452728 11.386073 4.20146179 12.18060303 C4.06159589 14.70446717 3.90626124 17.22710204 3.75 19.75 C3.64989403 21.47750567 3.55036824 23.20504505 3.45141602 24.93261719 C2.85726368 35.12658645 2.19345007 45.31673479 1.4375 55.5 C1.35854492 56.57443359 1.27958984 57.64886719 1.19824219 58.75585938 C1.1212207 59.72845703 1.04419922 60.70105469 0.96484375 61.703125 C0.899021 62.54004883 0.83319824 63.37697266 0.76538086 64.23925781 C0.5 66.25 0.5 66.25 -0.5 68.25 C-2.49954746 68.29254356 -4.50041636 68.29080783 -6.5 68.25 C-8.29486238 66.45513762 -7.64501517 64.02106916 -7.65811157 61.63084412 C-7.65491913 60.82582962 -7.65172668 60.02081512 -7.6484375 59.19140625 C-7.64629242 58.34961319 -7.64414734 57.50782013 -7.64193726 56.64051819 C-7.56216893 46.83219396 -6.9791278 37.05779675 -6.328125 27.27319336 C-6.12138709 24.13261592 -5.93145955 20.99128272 -5.7421875 17.84960938 C-5.61297971 15.84628938 -5.48280928 13.84303119 -5.3515625 11.83984375 C-5.26861435 10.43544289 -5.26861435 10.43544289 -5.18399048 9.00267029 C-5.12407928 8.1431929 -5.06416809 7.28371552 -5.00244141 6.39819336 C-4.95358795 5.64275742 -4.9047345 4.88732147 -4.85440063 4.10899353 C-4.26254797 1.0044554 -3.04817119 0.30481712 0 0 Z " fill="#FFFFFF" transform="translate(86.5,44.75)"/>
<path d="M0 0 C2.5 0.25 2.5 0.25 4.5 2.25 C4.85440063 4.10899353 4.85440063 4.10899353 5.00244141 6.39819336 C5.0623526 7.25767075 5.12226379 8.11714813 5.18399048 9.00267029 C5.23928925 9.93893753 5.29458801 10.87520477 5.3515625 11.83984375 C5.41532074 12.81297012 5.47907898 13.7860965 5.54476929 14.78871155 C5.67851288 16.86235748 5.80765611 18.93630434 5.93261719 21.01049805 C6.12070516 24.11657523 6.32467079 27.22127637 6.53125 30.32617188 C7.15020548 39.94773946 7.62386445 49.54821525 7.6484375 59.19140625 C7.65322617 60.39892799 7.65322617 60.39892799 7.65811157 61.63084412 C7.62802484 67.12197516 7.62802484 67.12197516 6.5 68.25 C4.50041636 68.29080783 2.49954746 68.29254356 0.5 68.25 C-1.14647623 64.95704754 -0.97084162 61.26865667 -1.21875 57.640625 C-1.28141556 56.76956116 -1.34408112 55.89849731 -1.40864563 55.0010376 C-1.61074719 52.16768407 -1.80598953 49.33391835 -2 46.5 C-2.0662558 45.54536865 -2.1325116 44.5907373 -2.20077515 43.60717773 C-2.64796246 37.1556918 -3.07970921 30.70329134 -3.5 24.25 C-3.54658752 23.53884033 -3.59317505 22.82768066 -3.64117432 22.0949707 C-3.88688942 18.31433836 -4.1105162 14.53320967 -4.3125 10.75 C-4.36535156 9.88149414 -4.41820312 9.01298828 -4.47265625 8.11816406 C-4.56410671 6.16422705 -4.54542756 4.20554835 -4.5 2.25 C-2.5 0.25 -2.5 0.25 0 0 Z " fill="#FFFFFF" transform="translate(41.5,44.75)"/>
<path d="M0 0 C3 0.125 3 0.125 4 1.125 C4.09939626 3.17512846 4.12799553 5.22871392 4.12939453 7.28125 C4.13254669 8.59931641 4.13569885 9.91738281 4.13894653 11.27539062 C4.13715675 12.72526075 4.1351058 14.17513058 4.1328125 15.625 C4.13348557 17.10091162 4.13445563 18.57682313 4.13571167 20.05273438 C4.13718848 23.14975029 4.13503464 26.24673742 4.13037109 29.34375 C4.1246738 33.32208549 4.1279529 37.30035352 4.13394356 41.27868652 C4.13754963 44.32747917 4.13641037 47.37625571 4.13381577 50.42504883 C4.13314662 51.89233406 4.13397447 53.35962074 4.13629532 54.8269043 C4.13882257 56.87418593 4.1342906 58.92147266 4.12939453 60.96875 C4.12859894 62.13599609 4.12780334 63.30324219 4.12698364 64.50585938 C4 67.125 4 67.125 3 68.125 C0 68.25 0 68.25 -3 68.125 C-4.82556117 66.29943883 -4.12772403 63.41961397 -4.12939453 60.96875 C-4.13254669 59.65068359 -4.13569885 58.33261719 -4.13894653 56.97460938 C-4.13715675 55.52473925 -4.1351058 54.07486942 -4.1328125 52.625 C-4.13348557 51.14908838 -4.13445563 49.67317687 -4.13571167 48.19726562 C-4.13718848 45.10024971 -4.13503464 42.00326258 -4.13037109 38.90625 C-4.1246738 34.92791451 -4.1279529 30.94964648 -4.13394356 26.97131348 C-4.13754963 23.92252083 -4.13641037 20.87374429 -4.13381577 17.82495117 C-4.13314662 16.35766594 -4.13397447 14.89037926 -4.13629532 13.4230957 C-4.13882257 11.37581407 -4.1342906 9.32852734 -4.12939453 7.28125 C-4.12859894 6.11400391 -4.12780334 4.94675781 -4.12698364 3.74414062 C-3.94550296 0.00095431 -3.79355107 0.15806463 0 0 Z " fill="#FFFFFF" transform="translate(64,44.875)"/>
</svg>
